<svg xmlns="http://www.w3.org/2000/svg" xmlns:xlink="http://www.w3.org/1999/xlink" width="378" zoomAndPan="magnify" viewBox="0 0 282.96 283.499989" height="378" preserveAspectRatio="xMidYMid meet" version="1.0"><defs><clipPath id="36b2ced125"><path d="M 0.230469 0 L 282.691406 0 L 282.691406 283 L 0.230469 283 Z M 0.230469 0 " clip-rule="nonzero"/></clipPath></defs><g clip-path="url(#36b2ced125)"><path fill="#ffffff" d="M 0.230469 0 L 283.230469 0 L 283.230469 283 L 0.230469 283 Z M 0.230469 0 " fill-opacity="1" fill-rule="nonzero"/><path fill="#ffffff" d="M 0.230469 0 L 283.230469 0 L 283.230469 283 L 0.230469 283 Z M 0.230469 0 " fill-opacity="1" fill-rule="nonzero"/><path fill="#000000" d="M 141.605469 -0.0820312 C 63.480469 -0.0820312 0.144531 63.25 0.144531 141.378906 C 0.144531 219.503906 63.480469 282.839844 141.605469 282.839844 C 219.734375 282.839844 283.070312 219.503906 283.070312 141.378906 C 283.070312 63.25 219.734375 -0.0820312 141.605469 -0.0820312 Z M 211.96875 211.6875 C 204.527344 219.128906 192.457031 219.128906 185.015625 211.6875 L 142.570312 169.246094 L 98.199219 213.617188 C 90.757812 221.058594 78.6875 221.058594 71.25 213.617188 C 63.804688 206.167969 63.804688 194.105469 71.25 186.660156 L 115.617188 142.289062 L 74.304688 100.980469 C 66.863281 93.535156 66.863281 81.472656 74.304688 74.023438 C 81.75 66.582031 93.816406 66.582031 101.261719 74.023438 L 142.570312 115.339844 L 181.953125 75.953125 C 189.394531 68.511719 201.46875 68.507812 208.90625 75.953125 C 216.355469 83.402344 216.355469 95.46875 208.90625 102.910156 L 169.527344 142.289062 L 211.96875 184.734375 C 219.410156 192.171875 219.410156 204.242188 211.96875 211.6875 Z M 211.96875 211.6875 " fill-opacity="1" fill-rule="nonzero"/></g></svg>