<svg xmlns="http://www.w3.org/2000/svg" xmlns:xlink="http://www.w3.org/1999/xlink" width="378" zoomAndPan="magnify" viewBox="0 0 282.96 283.499989" height="378" preserveAspectRatio="xMidYMid meet" version="1.0"><defs><clipPath id="f0396464a2"><path d="M 0.230469 0 L 282.691406 0 L 282.691406 283 L 0.230469 283 Z M 0.230469 0 " clip-rule="nonzero"/></clipPath><clipPath id="8812577e8a"><path d="M 35 28.296875 L 258.550781 28.296875 L 258.550781 210.226562 L 35 210.226562 Z M 35 28.296875 " clip-rule="nonzero"/></clipPath></defs><g clip-path="url(#f0396464a2)"><path fill="#ffffff" d="M 0.230469 0 L 283.230469 0 L 283.230469 283 L 0.230469 283 Z M 0.230469 0 " fill-opacity="1" fill-rule="nonzero"/><path fill="#ffffff" d="M 0.230469 0 L 283.230469 0 L 283.230469 283 L 0.230469 283 Z M 0.230469 0 " fill-opacity="1" fill-rule="nonzero"/></g><g clip-path="url(#8812577e8a)"><path fill="#000000" d="M 83.132812 28.296875 C 80.804688 28.296875 78.953125 29.695312 78.480469 32.023438 L 35.214844 204.179688 C 34.742188 205.578125 35.214844 206.960938 36.140625 208.359375 C 37.070312 209.761719 38.46875 209.761719 39.867188 209.761719 L 64.050781 209.761719 C 66.378906 209.761719 68.230469 208.359375 68.703125 206.035156 L 77.535156 163.230469 L 123.144531 163.230469 L 131.976562 206.035156 C 132.449219 208.359375 134.300781 209.761719 136.628906 209.761719 L 160.8125 209.761719 C 162.210938 209.761719 163.609375 209.289062 164.539062 207.886719 C 165.464844 206.507812 165.9375 205.109375 165.464844 203.707031 L 121.726562 31.550781 C 121.273438 29.695312 119.402344 28.296875 117.074219 28.296875 Z M 100.339844 58.539062 L 117.546875 135.3125 L 83.132812 135.3125 Z M 220.832031 98.089844 C 205.929688 98.089844 189.195312 103.671875 176.640625 112.976562 C 175.695312 113.902344 174.769531 114.847656 174.769531 116.246094 C 174.769531 117.628906 175.242188 119.027344 176.167969 119.957031 L 185.46875 129.261719 C 186.398438 130.1875 187.324219 130.660156 188.722656 130.660156 C 189.648438 130.660156 190.121094 130.660156 190.59375 130.207031 C 195.699219 127.878906 209.65625 121.355469 216.632812 121.355469 C 223.140625 121.355469 227.789062 122.753906 230.589844 125.554688 C 233.386719 128.335938 234.769531 132.988281 235.242188 140.421875 L 230.589844 140.421875 C 207.800781 140.421875 183.144531 142.292969 175.222656 156.707031 C 169.1875 167.410156 169.1875 180.441406 175.695312 191.601562 C 182.671875 203.234375 195.226562 210.214844 210.582031 210.214844 C 218.488281 210.214844 226.863281 208.359375 235.242188 205.109375 C 235.242188 206.507812 235.714844 207.433594 236.640625 208.359375 C 237.566406 209.289062 238.492188 209.761719 239.890625 209.761719 L 253.847656 209.761719 C 256.171875 209.761719 258.5 207.433594 258.5 205.109375 L 258.5 148.816406 C 258.5 134.859375 258.5 113.902344 242.671875 103.671875 C 237.09375 99.945312 229.664062 98.089844 220.832031 98.089844 Z M 189.433594 110.523438 C 189.230469 110.632812 189.03125 110.742188 188.832031 110.832031 C 189.03125 110.742188 189.230469 110.632812 189.433594 110.523438 Z M 185.980469 112.394531 C 183.90625 113.613281 181.890625 114.902344 179.964844 116.320312 C 179.945312 116.300781 179.890625 116.246094 179.875 116.246094 C 181.800781 114.847656 183.871094 113.59375 185.980469 112.394531 Z M 231.042969 144.164062 L 239.875 144.164062 C 239.875 144.308594 239.890625 144.457031 239.890625 144.621094 C 236.621094 144.765625 230.570312 144.382812 223.613281 144.257812 C 226.246094 144.183594 228.773438 144.164062 231.042969 144.164062 Z M 221.285156 163.230469 L 235.242188 163.230469 C 235.242188 186.496094 193.375 195.347656 193.375 176.261719 C 193.375 166.957031 202.207031 163.230469 221.285156 163.230469 Z M 221.285156 163.230469 " fill-opacity="1" fill-rule="nonzero"/></g></svg>