<svg xmlns="http://www.w3.org/2000/svg" xmlns:xlink="http://www.w3.org/1999/xlink" width="378" zoomAndPan="magnify" viewBox="0 0 282.96 283.499989" height="378" preserveAspectRatio="xMidYMid meet" version="1.0"><defs><clipPath id="6e4758d9de"><path d="M 0.230469 0 L 282.691406 0 L 282.691406 283 L 0.230469 283 Z M 0.230469 0 " clip-rule="nonzero"/></clipPath><clipPath id="bd19956647"><path d="M 79 54 L 234.621094 54 L 234.621094 204 L 79 204 Z M 79 54 " clip-rule="nonzero"/></clipPath><clipPath id="acd7a3deeb"><path d="M 48.949219 71 L 207 71 L 207 229.414062 L 48.949219 229.414062 Z M 48.949219 71 " clip-rule="nonzero"/></clipPath></defs><g clip-path="url(#6e4758d9de)"><path fill="#ffffff" d="M 0.230469 0 L 283.230469 0 L 283.230469 283 L 0.230469 283 Z M 0.230469 0 " fill-opacity="1" fill-rule="nonzero"/><path fill="#ffffff" d="M 0.230469 0 L 283.230469 0 L 283.230469 283 L 0.230469 283 Z M 0.230469 0 " fill-opacity="1" fill-rule="nonzero"/></g><g clip-path="url(#bd19956647)"><path fill="#000000" d="M 88.453125 131.074219 L 133.648438 177.589844 L 109.03125 176.480469 L 224.792969 55.6875 C 226.847656 53.542969 230.246094 53.46875 232.390625 55.519531 C 234.375 57.414062 234.585938 60.464844 232.980469 62.605469 L 132.792969 196.574219 L 131.957031 197.691406 C 127.332031 203.875 118.5625 205.144531 112.371094 200.527344 C 110.546875 199.164062 109.121094 197.378906 108.175781 195.464844 L 79.679688 137.230469 C 78.359375 134.539062 79.476562 131.292969 82.171875 129.976562 C 84.335938 128.921875 86.859375 129.4375 88.453125 131.074219 Z M 88.453125 131.074219 " fill-opacity="1" fill-rule="nonzero"/></g><g clip-path="url(#acd7a3deeb)"><path fill="#000000" d="M 175.195312 229.414062 L 80.640625 229.414062 C 72.183594 229.414062 64.234375 226.125 58.253906 220.152344 C 52.277344 214.183594 48.984375 206.242188 48.984375 197.796875 L 48.984375 103.355469 C 48.984375 94.910156 52.277344 86.96875 58.253906 81 C 64.234375 75.027344 72.183594 71.738281 80.640625 71.738281 L 163.582031 71.738281 C 166.003906 71.738281 167.96875 73.699219 167.96875 76.117188 C 167.96875 78.539062 166.003906 80.5 163.582031 80.5 L 80.640625 80.5 C 68.019531 80.5 57.753906 90.753906 57.753906 103.355469 L 57.753906 197.796875 C 57.753906 210.402344 68.019531 220.65625 80.640625 220.65625 L 175.195312 220.65625 C 187.816406 220.65625 198.082031 210.402344 198.082031 197.796875 L 198.082031 145.648438 C 198.082031 143.230469 200.042969 141.269531 202.464844 141.269531 C 204.886719 141.269531 206.851562 143.230469 206.851562 145.648438 L 206.851562 197.796875 C 206.851562 206.242188 203.558594 214.183594 197.578125 220.152344 C 191.601562 226.125 183.652344 229.414062 175.195312 229.414062 Z M 175.195312 229.414062 " fill-opacity="1" fill-rule="nonzero"/></g></svg>