<svg xmlns="http://www.w3.org/2000/svg" xmlns:xlink="http://www.w3.org/1999/xlink" width="378" zoomAndPan="magnify" viewBox="0 0 282.96 283.499989" height="378" preserveAspectRatio="xMidYMid meet" version="1.0"><defs><clipPath id="273093e45e"><path d="M 0.230469 0 L 282.691406 0 L 282.691406 283 L 0.230469 283 Z M 0.230469 0 " clip-rule="nonzero"/></clipPath><clipPath id="d91c2dcdb5"><path d="M 76.558594 69 L 206.828125 69 L 206.828125 214.132812 L 76.558594 214.132812 Z M 76.558594 69 " clip-rule="nonzero"/></clipPath></defs><g clip-path="url(#273093e45e)"><path fill="#ffffff" d="M 0.230469 0 L 283.230469 0 L 283.230469 283 L 0.230469 283 Z M 0.230469 0 " fill-opacity="1" fill-rule="nonzero"/><path fill="#ffffff" d="M 0.230469 0 L 283.230469 0 L 283.230469 283 L 0.230469 283 Z M 0.230469 0 " fill-opacity="1" fill-rule="nonzero"/></g><g clip-path="url(#d91c2dcdb5)"><path fill="#000000" d="M 203.097656 87.761719 L 169.625 113.675781 L 150.964844 95.457031 L 169.511719 72.9375 C 170.304688 71.917969 170.191406 70.5625 169.171875 69.769531 C 168.269531 68.976562 166.796875 69.089844 166.007812 69.996094 L 144.859375 95.683594 L 147.6875 98.398438 C 147.574219 98.398438 147.574219 98.511719 147.460938 98.511719 C 139.773438 105.074219 128.800781 106.207031 122.128906 106.207031 C 121.453125 106.207031 120.773438 106.207031 120.207031 106.207031 C 120.207031 106.207031 120.09375 106.207031 120.09375 106.207031 C 117.945312 106.207031 115.683594 107.675781 115.121094 109.828125 L 99.515625 162.445312 C 78.027344 173.082031 77.125 177.382812 76.785156 179.078125 C 76.558594 180.4375 76.785156 181.683594 77.691406 182.699219 C 81.308594 186.886719 87.753906 185.527344 92.164062 184.738281 L 93.296875 184.511719 C 93.972656 184.398438 94.992188 184.058594 96.460938 183.71875 C 110.144531 180.210938 118.058594 179.417969 120.09375 181.230469 C 120.207031 181.34375 120.433594 181.457031 120.320312 182.132812 C 120.09375 183.832031 118.398438 185.304688 116.476562 186.886719 C 115.007812 188.132812 113.535156 189.375 112.519531 190.960938 C 110.257812 194.46875 109.917969 197.410156 111.386719 199.675781 C 114.328125 203.972656 123.488281 204.199219 141.808594 200.351562 C 142.371094 200.238281 142.9375 200.125 143.164062 200.011719 C 164.535156 195.941406 177.992188 196.617188 183.082031 201.824219 C 185.230469 203.972656 185.796875 207.140625 184.777344 211.214844 C 184.550781 212.460938 185.230469 213.59375 186.472656 213.933594 C 186.699219 213.933594 186.8125 214.046875 186.925781 214.046875 C 187.945312 214.046875 188.847656 213.367188 189.074219 212.234375 C 190.433594 206.578125 189.414062 202.050781 186.25 198.65625 C 176.863281 188.925781 150.855469 193.902344 142.257812 195.488281 C 141.921875 195.601562 141.46875 195.601562 140.789062 195.828125 C 119.304688 200.351562 115.683594 197.863281 115.007812 196.957031 C 114.667969 196.390625 115.007812 194.921875 116.136719 193.222656 C 116.816406 192.207031 117.945312 191.1875 119.191406 190.167969 C 121.566406 188.246094 124.167969 186.09375 124.617188 182.585938 C 124.957031 180.097656 123.828125 178.511719 122.921875 177.722656 C 118.851562 174.101562 108.898438 175.683594 95.21875 179.191406 C 93.972656 179.53125 92.84375 179.757812 92.277344 179.871094 C 91.9375 179.984375 91.484375 179.984375 91.144531 180.097656 C 87.980469 180.777344 83.117188 181.683594 81.195312 179.757812 C 81.535156 178.964844 84.023438 174.777344 103.925781 165.273438 L 104.265625 165.046875 C 104.714844 164.820312 105.054688 164.480469 105.28125 164.140625 L 154.019531 148.980469 C 156.167969 148.300781 157.75 146.035156 157.636719 143.773438 C 157.300781 128.15625 162.273438 120.351562 165.667969 116.957031 C 165.78125 116.84375 165.894531 116.730469 166.007812 116.617188 L 169.171875 119.671875 L 205.699219 91.269531 C 206.714844 90.476562 206.828125 89.117188 206.152344 88.101562 C 205.472656 87.195312 204.003906 86.96875 203.097656 87.761719 Z M 153.226562 144 C 153.226562 144.226562 153.003906 144.679688 152.777344 144.792969 L 110.03125 158.03125 L 136.605469 132.457031 C 136.945312 132.570312 137.285156 132.570312 137.734375 132.570312 C 140.902344 132.570312 143.390625 130.082031 143.390625 126.914062 C 143.390625 123.746094 140.902344 121.253906 137.734375 121.253906 C 134.570312 121.253906 132.082031 123.746094 132.082031 126.914062 C 132.082031 127.933594 132.421875 128.835938 132.875 129.742188 L 106.300781 155.316406 L 119.417969 111.183594 C 119.53125 111.070312 119.871094 110.84375 120.09375 110.84375 C 120.773438 110.84375 121.453125 110.84375 122.128906 110.84375 C 130.273438 110.84375 141.695312 109.375 150.175781 102.132812 L 162.160156 114.125 C 157.863281 118.878906 152.890625 127.707031 153.226562 144 Z M 153.226562 144 " fill-opacity="1" fill-rule="nonzero"/></g><path fill="#000000" d="M 175.503906 82.328125 C 174.601562 81.425781 173.242188 81.425781 172.339844 82.328125 L 163.292969 91.382812 C 162.386719 92.289062 162.386719 93.644531 163.292969 94.550781 C 163.746094 95.003906 164.308594 95.230469 164.875 95.230469 C 165.441406 95.230469 166.007812 95.003906 166.457031 94.550781 L 175.503906 85.496094 C 176.410156 84.59375 176.410156 83.234375 175.503906 82.328125 Z M 175.503906 82.328125 " fill-opacity="1" fill-rule="nonzero"/><path fill="#000000" d="M 170.53125 102.019531 C 171.09375 102.019531 171.660156 101.792969 172.113281 101.339844 L 181.160156 92.289062 C 182.0625 91.382812 182.0625 90.023438 181.160156 89.117188 C 180.253906 88.214844 178.898438 88.214844 177.992188 89.117188 L 168.945312 98.171875 C 168.042969 99.078125 168.042969 100.433594 168.945312 101.339844 C 169.398438 101.792969 169.964844 102.019531 170.53125 102.019531 Z M 170.53125 102.019531 " fill-opacity="1" fill-rule="nonzero"/></svg>