<svg xmlns="http://www.w3.org/2000/svg" xmlns:xlink="http://www.w3.org/1999/xlink" width="378" zoomAndPan="magnify" viewBox="0 0 282.96 283.499989" height="378" preserveAspectRatio="xMidYMid meet" version="1.0"><defs><clipPath id="8f45edef5c"><path d="M 0.230469 0 L 282.691406 0 L 282.691406 283 L 0.230469 283 Z M 0.230469 0 " clip-rule="nonzero"/></clipPath><clipPath id="8d51b5feb4"><path d="M 59.460938 59.230469 L 224.171875 59.230469 L 224.171875 223.941406 L 59.460938 223.941406 Z M 59.460938 59.230469 " clip-rule="nonzero"/></clipPath></defs><g clip-path="url(#8f45edef5c)"><path fill="#ffffff" d="M 0.230469 0 L 283.230469 0 L 283.230469 283 L 0.230469 283 Z M 0.230469 0 " fill-opacity="1" fill-rule="nonzero"/><path fill="#ffffff" d="M 0.230469 0 L 283.230469 0 L 283.230469 283 L 0.230469 283 Z M 0.230469 0 " fill-opacity="1" fill-rule="nonzero"/></g><g clip-path="url(#8d51b5feb4)"><path fill="#000000" d="M 193.972656 119.625 C 210.621094 119.625 224.171875 106.078125 224.171875 89.429688 C 224.171875 72.777344 210.621094 59.230469 193.972656 59.230469 C 177.324219 59.230469 163.777344 72.777344 163.777344 89.429688 C 163.777344 92.332031 164.210938 95.128906 164.980469 97.785156 L 113.703125 123.425781 C 108.101562 115.917969 99.328125 111.390625 89.65625 111.390625 C 73.007812 111.390625 59.460938 124.9375 59.460938 141.585938 C 59.460938 158.238281 73.007812 171.785156 89.65625 171.785156 C 99.339844 171.785156 108.125 167.242188 113.710938 159.75 L 164.980469 185.386719 C 164.210938 188.042969 163.777344 190.84375 163.777344 193.746094 C 163.777344 210.394531 177.324219 223.941406 193.972656 223.941406 C 210.621094 223.941406 224.171875 210.394531 224.171875 193.746094 C 224.171875 177.09375 210.621094 163.546875 193.972656 163.546875 C 184.148438 163.546875 175.429688 168.285156 169.914062 175.574219 L 118.625 149.929688 C 119.410156 147.238281 119.855469 144.457031 119.855469 141.585938 C 119.855469 138.710938 119.410156 135.925781 118.628906 133.242188 L 169.914062 107.597656 C 175.429688 114.886719 184.148438 119.625 193.972656 119.625 Z M 193.972656 174.527344 C 204.566406 174.527344 213.191406 183.148438 213.191406 193.746094 C 213.191406 204.339844 204.566406 212.960938 193.972656 212.960938 C 183.378906 212.960938 174.757812 204.339844 174.757812 193.746094 C 174.757812 183.148438 183.378906 174.527344 193.972656 174.527344 Z M 89.65625 160.800781 C 79.0625 160.800781 70.441406 152.179688 70.441406 141.585938 C 70.441406 130.992188 79.0625 122.371094 89.65625 122.371094 C 97.007812 122.371094 103.578125 126.4375 106.832031 133.039062 C 108.1875 135.703125 108.875 138.574219 108.875 141.585938 C 108.875 144.597656 108.1875 147.472656 106.804688 150.191406 C 103.578125 156.734375 97.007812 160.800781 89.65625 160.800781 Z M 193.972656 70.210938 C 204.566406 70.210938 213.191406 78.832031 213.191406 89.429688 C 213.191406 100.023438 204.566406 108.644531 193.972656 108.644531 C 183.378906 108.644531 174.757812 100.023438 174.757812 89.429688 C 174.757812 78.832031 183.378906 70.210938 193.972656 70.210938 Z M 193.972656 70.210938 " fill-opacity="1" fill-rule="nonzero"/></g></svg>