<svg xmlns="http://www.w3.org/2000/svg" xmlns:xlink="http://www.w3.org/1999/xlink" width="378" zoomAndPan="magnify" viewBox="0 0 282.96 283.499989" height="378" preserveAspectRatio="xMidYMid meet" version="1.0"><defs><clipPath id="01ffe60d1f"><path d="M 0.230469 0 L 282.691406 0 L 282.691406 283 L 0.230469 283 Z M 0.230469 0 " clip-rule="nonzero"/></clipPath><clipPath id="46c5cae1be"><path d="M 178 122.644531 L 216.773438 122.644531 L 216.773438 160.078125 L 178 160.078125 Z M 178 122.644531 " clip-rule="nonzero"/></clipPath><clipPath id="3917f72c63"><path d="M 122 122.644531 L 161 122.644531 L 161 160.078125 L 122 160.078125 Z M 122 122.644531 " clip-rule="nonzero"/></clipPath><clipPath id="6c7fd978fb"><path d="M 66.289062 122.644531 L 105 122.644531 L 105 160.078125 L 66.289062 160.078125 Z M 66.289062 122.644531 " clip-rule="nonzero"/></clipPath></defs><g clip-path="url(#01ffe60d1f)"><path fill="#ffffff" d="M 0.230469 0 L 283.230469 0 L 283.230469 283 L 0.230469 283 Z M 0.230469 0 " fill-opacity="1" fill-rule="nonzero"/><path fill="#ffffff" d="M 0.230469 0 L 283.230469 0 L 283.230469 283 L 0.230469 283 Z M 0.230469 0 " fill-opacity="1" fill-rule="nonzero"/></g><g clip-path="url(#46c5cae1be)"><path stroke-linecap="round" transform="matrix(0, 0.481156, -0.485333, 0, 216.659915, 122.645842)" fill="none" stroke-linejoin="round" d="M 72.413945 38.890309 C 72.413945 39.984917 72.357116 41.079526 72.251576 42.174135 C 72.137918 43.268744 71.983667 44.355304 71.764468 45.425767 C 71.553388 46.504278 71.285479 47.566693 70.968859 48.621058 C 70.644121 49.667376 70.27879 50.705644 69.85663 51.719767 C 69.43447 52.73389 68.971718 53.723867 68.452136 54.689698 C 67.932555 55.655529 67.372381 56.597215 66.763497 57.514754 C 66.154612 58.424246 65.497017 59.309591 64.798829 60.154693 C 64.10876 60.999795 63.36998 61.812703 62.590608 62.593417 C 61.819354 63.366082 61.007508 64.106553 60.15507 64.798732 C 59.302631 65.498959 58.425838 66.150895 57.51657 66.762589 C 56.599184 67.374282 55.657442 67.937683 54.691346 68.452793 C 53.725249 68.967903 52.734797 69.434722 51.719989 69.861297 C 50.705182 70.279824 49.674137 70.650059 48.618737 70.963954 C 47.571456 71.285898 46.507937 71.551502 45.428182 71.768814 C 44.356545 71.978077 43.268672 72.139049 42.172679 72.251729 C 41.084806 72.356361 39.988813 72.412701 38.892821 72.412701 C 37.788711 72.412701 36.700837 72.356361 35.604845 72.251729 C 34.508853 72.139049 33.429097 71.978077 32.349342 71.768814 C 31.277705 71.551502 30.214187 71.285898 29.158787 70.963954 C 28.111506 70.650059 27.080461 70.279824 26.065654 69.861297 C 25.050846 69.434722 24.060394 68.967903 23.086178 68.452793 C 22.120082 67.937683 21.17834 67.374282 20.269073 66.762589 C 19.351687 66.150895 18.474893 65.498959 17.622454 64.798732 C 16.778135 64.106553 15.966289 63.366082 15.186916 62.593417 C 14.407544 61.812703 13.676883 60.999795 12.978695 60.154693 C 12.280507 59.309591 11.631031 58.424246 11.022146 57.514754 C 10.413261 56.597215 9.844969 55.655529 9.325388 54.689698 C 8.813925 53.723867 8.343054 52.73389 7.920894 51.719767 C 7.498734 50.705644 7.133403 49.667376 6.816783 48.621058 C 6.492045 47.566693 6.232254 46.504278 6.013056 45.425767 C 5.801976 44.355304 5.639607 43.268744 5.534067 42.174135 C 5.420408 41.079526 5.371697 39.984917 5.371697 38.890309 C 5.371697 37.7957 5.420408 36.693043 5.534067 35.606482 C 5.639607 34.511874 5.801976 33.425313 6.013056 32.346802 C 6.232254 31.276339 6.492045 30.213925 6.816783 29.159559 C 7.133403 28.105193 7.498734 27.074973 7.920894 26.06085 C 8.343054 25.046727 8.813925 24.05675 9.325388 23.090919 C 9.844969 22.117039 10.413261 21.183402 11.022146 20.265863 C 11.631031 19.356372 12.280507 18.471026 12.978695 17.625924 C 13.676883 16.772773 14.407544 15.967914 15.186916 15.1872 C 15.966289 14.414535 16.778135 13.674065 17.622454 12.981886 C 18.474893 12.281658 19.351687 11.629722 20.269073 11.018029 C 21.17834 10.406336 22.120082 9.842934 23.086178 9.327824 C 24.060394 8.812714 25.050846 8.337847 26.065654 7.91932 C 27.080461 7.500793 28.111506 7.130558 29.158787 6.816663 C 30.214187 6.494719 31.277705 6.229115 32.349342 6.011803 C 33.429097 5.80254 34.508853 5.641568 35.604845 5.528888 C 36.700837 5.424256 37.788711 5.367916 38.892821 5.367916 C 39.988813 5.367916 41.084806 5.424256 42.172679 5.528888 C 43.268672 5.641568 44.356545 5.80254 45.428182 6.011803 C 46.507937 6.229115 47.571456 6.494719 48.618737 6.816663 C 49.674137 7.130558 50.705182 7.500793 51.719989 7.91932 C 52.734797 8.337847 53.725249 8.812714 54.691346 9.327824 C 55.657442 9.842934 56.599184 10.406336 57.51657 11.018029 C 58.425838 11.629722 59.302631 12.281658 60.15507 12.981886 C 61.007508 13.674065 61.819354 14.414535 62.590608 15.1872 C 63.36998 15.967914 64.10876 16.772773 64.798829 17.625924 C 65.497017 18.471026 66.154612 19.356372 66.763497 20.265863 C 67.372381 21.183402 67.932555 22.117039 68.452136 23.090919 C 68.971718 24.05675 69.43447 25.046727 69.85663 26.06085 C 70.27879 27.074973 70.644121 28.105193 70.968859 29.159559 C 71.285479 30.213925 71.553388 31.276339 71.764468 32.346802 C 71.983667 33.425313 72.137918 34.511874 72.251576 35.606482 C 72.357116 36.693043 72.413945 37.7957 72.413945 38.890309 Z M 72.413945 38.890309 " stroke="#000000" stroke-width="10.742" stroke-opacity="1" stroke-miterlimit="10"/></g><g clip-path="url(#3917f72c63)"><path stroke-linecap="round" transform="matrix(0, 0.481156, -0.485333, 0, 216.659915, 122.645842)" fill="none" stroke-linejoin="round" d="M 72.413945 154.782009 C 72.413945 155.876618 72.357116 156.971227 72.251576 158.065835 C 72.137918 159.160444 71.983667 160.238956 71.764468 161.317467 C 71.553388 162.395979 71.285479 163.458393 70.968859 164.512759 C 70.644121 165.559076 70.27879 166.589296 69.85663 167.611468 C 69.43447 168.62559 68.971718 169.615567 68.452136 170.581399 C 67.932555 171.54723 67.372381 172.488915 66.763497 173.406455 C 66.154612 174.315946 65.497017 175.193243 64.798829 176.046394 C 64.10876 176.891496 63.36998 177.704404 62.590608 178.485118 C 61.819354 179.257783 61.007508 179.998253 60.15507 180.690432 C 59.302631 181.39066 58.425838 182.042596 57.51657 182.654289 C 56.599184 183.257934 55.657442 183.821335 54.691346 184.344494 C 53.725249 184.859604 52.734797 185.326422 51.719989 185.744949 C 50.705182 186.171525 49.674137 186.54176 48.618737 186.855655 C 47.571456 187.177599 46.507937 187.443202 45.428182 187.652466 C 44.356545 187.869778 43.268672 188.03075 42.172679 188.135382 C 41.084806 188.248062 39.988813 188.296353 38.892821 188.296353 C 37.788711 188.296353 36.700837 188.248062 35.604845 188.135382 C 34.508853 188.03075 33.429097 187.869778 32.349342 187.652466 C 31.277705 187.443202 30.214187 187.177599 29.158787 186.855655 C 28.111506 186.54176 27.080461 186.171525 26.065654 185.744949 C 25.050846 185.326422 24.060394 184.859604 23.086178 184.344494 C 22.120082 183.821335 21.17834 183.257934 20.269073 182.654289 C 19.351687 182.042596 18.474893 181.39066 17.622454 180.690432 C 16.778135 179.998253 15.966289 179.257783 15.186916 178.485118 C 14.407544 177.704404 13.676883 176.891496 12.978695 176.046394 C 12.280507 175.193243 11.631031 174.315946 11.022146 173.406455 C 10.413261 172.488915 9.844969 171.54723 9.325388 170.581399 C 8.813925 169.615567 8.343054 168.62559 7.920894 167.611468 C 7.498734 166.589296 7.133403 165.559076 6.816783 164.512759 C 6.492045 163.458393 6.232254 162.395979 6.013056 161.317467 C 5.801976 160.238956 5.639607 159.160444 5.534067 158.065835 C 5.420408 156.971227 5.371697 155.876618 5.371697 154.782009 C 5.371697 153.679352 5.420408 152.584743 5.534067 151.498183 C 5.639607 150.403574 5.801976 149.317014 6.013056 148.238503 C 6.232254 147.159991 6.492045 146.097577 6.816783 145.051259 C 7.133403 143.996894 7.498734 142.966674 7.920894 141.952551 C 8.343054 140.938428 8.813925 139.948451 9.325388 138.98262 C 9.844969 138.00874 10.413261 137.067055 11.022146 136.157563 C 11.631031 135.248072 12.280507 134.362727 12.978695 133.517625 C 13.676883 132.664474 14.407544 131.851566 15.186916 131.078901 C 15.966289 130.298187 16.778135 129.565765 17.622454 128.865538 C 18.474893 128.173358 19.351687 127.521422 20.269073 126.909729 C 21.17834 126.298036 22.120082 125.734635 23.086178 125.219525 C 24.060394 124.704415 25.050846 124.229548 26.065654 123.811021 C 27.080461 123.392494 28.111506 123.022259 29.158787 122.700315 C 30.214187 122.38642 31.277705 122.120816 32.349342 121.903504 C 33.429097 121.686192 34.508853 121.52522 35.604845 121.420588 C 36.700837 121.315957 37.788711 121.259616 38.892821 121.259616 C 39.988813 121.259616 41.084806 121.315957 42.172679 121.420588 C 43.268672 121.52522 44.356545 121.686192 45.428182 121.903504 C 46.507937 122.120816 47.571456 122.38642 48.618737 122.700315 C 49.674137 123.022259 50.705182 123.392494 51.719989 123.811021 C 52.734797 124.229548 53.725249 124.704415 54.691346 125.219525 C 55.657442 125.734635 56.599184 126.298036 57.51657 126.909729 C 58.425838 127.521422 59.302631 128.173358 60.15507 128.865538 C 61.007508 129.565765 61.819354 130.298187 62.590608 131.078901 C 63.36998 131.851566 64.10876 132.664474 64.798829 133.517625 C 65.497017 134.362727 66.154612 135.248072 66.763497 136.157563 C 67.372381 137.067055 67.932555 138.00874 68.452136 138.98262 C 68.971718 139.948451 69.43447 140.938428 69.85663 141.952551 C 70.27879 142.966674 70.644121 143.996894 70.968859 145.051259 C 71.285479 146.097577 71.553388 147.159991 71.764468 148.238503 C 71.983667 149.317014 72.137918 150.403574 72.251576 151.498183 C 72.357116 152.584743 72.413945 153.679352 72.413945 154.782009 Z M 72.413945 154.782009 " stroke="#000000" stroke-width="10.742" stroke-opacity="1" stroke-miterlimit="10"/></g><g clip-path="url(#6c7fd978fb)"><path stroke-linecap="round" transform="matrix(0, 0.481156, -0.485333, 0, 216.659915, 122.645842)" fill="none" stroke-linejoin="round" d="M 72.413945 270.657613 C 72.413945 271.76027 72.357116 272.854879 72.251576 273.949487 C 72.137918 275.036048 71.983667 276.122608 71.764468 277.201119 C 71.553388 278.279631 71.285479 279.342045 70.968859 280.388362 C 70.644121 281.442728 70.27879 282.472948 69.85663 283.487071 C 69.43447 284.501194 68.971718 285.491171 68.452136 286.465051 C 67.932555 287.430882 67.372381 288.372567 66.763497 289.282058 C 66.154612 290.19155 65.497017 291.076895 64.798829 291.921997 C 64.10876 292.775148 63.36998 293.588056 62.590608 294.360721 C 61.819354 295.141435 61.007508 295.873857 60.15507 296.574084 C 59.302631 297.266263 58.425838 297.918199 57.51657 298.529893 C 56.599184 299.141586 55.657442 299.704987 54.691346 300.220097 C 53.725249 300.743256 52.734797 301.210074 51.719989 301.628601 C 50.705182 302.047128 49.674137 302.417363 48.618737 302.739307 C 47.571456 303.053202 46.507937 303.318806 45.428182 303.536118 C 44.356545 303.75343 43.268672 303.914402 42.172679 304.019034 C 41.084806 304.123665 39.988813 304.180005 38.892821 304.180005 C 37.788711 304.180005 36.700837 304.123665 35.604845 304.019034 C 34.508853 303.914402 33.429097 303.75343 32.349342 303.536118 C 31.277705 303.318806 30.214187 303.053202 29.158787 302.739307 C 28.111506 302.417363 27.080461 302.047128 26.065654 301.628601 C 25.050846 301.210074 24.060394 300.743256 23.086178 300.220097 C 22.120082 299.704987 21.17834 299.141586 20.269073 298.529893 C 19.351687 297.918199 18.474893 297.266263 17.622454 296.574084 C 16.778135 295.873857 15.966289 295.141435 15.186916 294.360721 C 14.407544 293.588056 13.676883 292.775148 12.978695 291.921997 C 12.280507 291.076895 11.631031 290.19155 11.022146 289.282058 C 10.413261 288.372567 9.844969 287.430882 9.325388 286.465051 C 8.813925 285.491171 8.343054 284.501194 7.920894 283.487071 C 7.498734 282.472948 7.133403 281.442728 6.816783 280.388362 C 6.492045 279.342045 6.232254 278.279631 6.013056 277.201119 C 5.801976 276.122608 5.639607 275.036048 5.534067 273.949487 C 5.420408 272.854879 5.371697 271.76027 5.371697 270.657613 C 5.371697 269.563004 5.420408 268.468395 5.534067 267.373786 C 5.639607 266.279178 5.801976 265.200666 6.013056 264.122155 C 6.232254 263.043643 6.492045 261.981229 6.816783 260.926863 C 7.133403 259.880546 7.498734 258.850326 7.920894 257.836203 C 8.343054 256.82208 8.813925 255.824054 9.325388 254.858223 C 9.844969 253.892392 10.413261 252.950707 11.022146 252.041215 C 11.631031 251.123676 12.280507 250.246379 12.978695 249.393228 C 13.676883 248.548126 14.407544 247.735218 15.186916 246.954504 C 15.966289 246.181839 16.778135 245.441369 17.622454 244.74919 C 18.474893 244.048962 19.351687 243.397026 20.269073 242.785333 C 21.17834 242.181688 22.120082 241.618287 23.086178 241.095128 C 24.060394 240.580018 25.050846 240.1132 26.065654 239.694673 C 27.080461 239.268097 28.111506 238.905911 29.158787 238.583967 C 30.214187 238.262023 31.277705 237.996419 32.349342 237.787156 C 33.429097 237.569844 34.508853 237.408872 35.604845 237.30424 C 36.700837 237.19156 37.788711 237.143269 38.892821 237.143269 C 39.988813 237.143269 41.084806 237.19156 42.172679 237.30424 C 43.268672 237.408872 44.356545 237.569844 45.428182 237.787156 C 46.507937 237.996419 47.571456 238.262023 48.618737 238.583967 C 49.674137 238.905911 50.705182 239.268097 51.719989 239.694673 C 52.734797 240.1132 53.725249 240.580018 54.691346 241.095128 C 55.657442 241.618287 56.599184 242.181688 57.51657 242.785333 C 58.425838 243.397026 59.302631 244.048962 60.15507 244.74919 C 61.007508 245.441369 61.819354 246.181839 62.590608 246.954504 C 63.36998 247.735218 64.10876 248.548126 64.798829 249.393228 C 65.497017 250.246379 66.154612 251.123676 66.763497 252.041215 C 67.372381 252.950707 67.932555 253.892392 68.452136 254.858223 C 68.971718 255.824054 69.43447 256.82208 69.85663 257.836203 C 70.27879 258.850326 70.644121 259.880546 70.968859 260.926863 C 71.285479 261.981229 71.553388 263.043643 71.764468 264.122155 C 71.983667 265.200666 72.137918 266.279178 72.251576 267.373786 C 72.357116 268.468395 72.413945 269.563004 72.413945 270.657613 Z M 72.413945 270.657613 " stroke="#000000" stroke-width="10.742" stroke-opacity="1" stroke-miterlimit="10"/></g></svg>